<svg xmlns="http://www.w3.org/2000/svg" width="18" height="17" viewBox="0 0 18 17">
  <defs>
    <style>
      .cls-1 {
        fill: #fff;
        fill-rule: evenodd;
      }
    </style>
  </defs>
  <path id="Countries_copy" data-name="Countries copy" class="cls-1" d="M20371.9,422.452a7.181,7.181,0,0,0-1.6-3.894,8.833,8.833,0,0,0-5.8-3.413c-0.5-.079-1-0.1-1.5-0.148h-0.1c-0.4.047-.9,0.079-1.3,0.145-4.7.674-8.1,4.835-7.5,9.262a8.113,8.113,0,0,0,2.8,5.352,9.19,9.19,0,0,0,7,2.2,8.474,8.474,0,0,0,5.3-2.322A7.724,7.724,0,0,0,20371.9,422.452Zm-1.9,4.351a6.019,6.019,0,0,1-.6-1.343c-0.2-.648-0.6-0.022-0.7.4,0,0.422-.3.74-0.9,0.105s-0.7-.493-0.9-0.493-0.5.423-.5,2.395c0.1,1.408.7,1.633,1.1,1.734a9.376,9.376,0,0,1-2.5,1.05,7.917,7.917,0,0,1-8.8-3.731,6.831,6.831,0,0,1,.8-7.809c0,0.318.1,0.6,0.1,0.89a9.024,9.024,0,0,1-.1,2.322,0.473,0.473,0,0,0,0,.511,0.379,0.379,0,0,0,.3.2,0.389,0.389,0,0,0,.2-0.194,0.849,0.849,0,0,0,.1-0.49v-0.417a2.478,2.478,0,0,0,.3.228c0.2,0.185.4,0.369,0.6,0.569,0,0.088.1,0.212,0.1,0.318a1.093,1.093,0,0,0,.2.562,0.976,0.976,0,0,1,.3.68,0.367,0.367,0,0,1,.1.3,0.636,0.636,0,0,0,.5.349,0.471,0.471,0,0,1,.5.375c-0.1.008-.2,0.016-0.3,0.022a0.4,0.4,0,0,0-.4.485,1.991,1.991,0,0,0,.7,1.594,1.4,1.4,0,0,1,.4.352,0.942,0.942,0,0,1,.3.991,1.209,1.209,0,0,0-.2.552V429.9c0.1,0.195,0,.624.3,0.589,0.3-.062.6,0.007,0.6-0.394v-0.156a2.094,2.094,0,0,1,.7-1.64c0.2-.166.5-0.336,0.7-0.532a0.935,0.935,0,0,0,.4-1.069,0.855,0.855,0,0,1,.3-0.947,1.253,1.253,0,0,0,.5-0.966,0.623,0.623,0,0,0-.7-0.652,2.667,2.667,0,0,0-.5.156,6.935,6.935,0,0,1-.8.239,0.657,0.657,0,0,1-.7-0.439c-0.2-.22-0.2-0.237-0.4-0.1-0.2.116-.4,0.233-0.6,0.338a0.371,0.371,0,0,1-.5-0.1,2.246,2.246,0,0,0-.3-0.232c-0.1-.051-0.2-0.065-0.3-0.127a0.521,0.521,0,0,1-.2-0.306,0.369,0.369,0,0,1,.2-0.289c0.3-.077.5-0.089,0.7-0.133a2.131,2.131,0,0,0,.3-0.089c0.2-.056.2-0.147,0.1-0.234a0.505,0.505,0,0,1-.2-0.1,10.323,10.323,0,0,1-1-.37,2.29,2.29,0,0,1-.3-0.113q-0.3-.19,0-0.424a1.609,1.609,0,0,1,2.4.023c0.2,0.252.4,0.567,0.6,0.833a6.5,6.5,0,0,0,.6.566,0.47,0.47,0,0,0,.4.026,0.322,0.322,0,0,0,.1-0.411c-0.1-.131-0.2-0.26-0.3-0.375a1.323,1.323,0,0,1,.5-1.985,1.077,1.077,0,0,0,.7-0.681,3.286,3.286,0,0,0-.4.1c-0.7.189-.2-0.265,0.1-0.345,0.2-.048-0.2-0.178-0.2-0.178s0.3-.073.5-0.171a2.917,2.917,0,0,0,.5-0.25,2.272,2.272,0,0,0,.2-0.307c-0.1-.017-0.1-0.033-0.1-0.049-0.2.021-.3,0.045-0.5,0.063-0.3.031-.4-0.023-0.4-0.3a0.255,0.255,0,0,0-.4-0.195,1.611,1.611,0,0,1-.4.236,0.364,0.364,0,0,1-.6-0.2c0-.179-0.1-0.213-0.3-0.112-0.1.05-.2,0.123-0.3,0.171a0.989,0.989,0,0,1-.4.207c-0.2.051-.3,0.088-0.4-0.07-0.2-.171-0.1-0.337.1-0.444a6.525,6.525,0,0,1,.6-0.341,7.936,7.936,0,0,1,.8-0.436,0.413,0.413,0,0,0,.2-0.547c0-.195-0.2-0.26-0.4-0.171a1.139,1.139,0,0,1-.4.25,0.849,0.849,0,0,1-.4.022c-0.1-.008-0.1-0.132-0.1-0.2a0.4,0.4,0,0,1,.1-0.121c0.4-.058.8-0.1,1.2-0.149a0.2,0.2,0,0,1,.2.065,1.65,1.65,0,0,0,1,.568c0.3,0.09.4,0.047,0.4-.27a1.712,1.712,0,0,1,1.3-.027,6.2,6.2,0,0,1,.6.493v0.274c0,0.12-.1.231-0.1,0.352a0.3,0.3,0,0,0,.3.412,1.02,1.02,0,0,0,.2-0.021c0.3-.011.4,0.075,0.3,0.3,0,0.318.1,0.356,0.4,0.3a0.67,0.67,0,0,1,.3.059,1.183,1.183,0,0,1,.2.112c0.3,0.227.5,0.142,0.6-.229a0.118,0.118,0,0,1,.1-0.125c0-.166.1-0.21,0.2-0.09,0.3,0.252.5,0.517,0.8,0.791a0.893,0.893,0,0,0-.3.811,1.286,1.286,0,0,1-.1.866c-0.1.266-.3,0.53-0.4,0.808-0.1.418,0,.608,0.5,0.7,0.4,0.088.5,0.17,0.5,0.565a1.231,1.231,0,0,0,.8,1.15c0.1,0.051.3,0.092,0.4,0.136A6.121,6.121,0,0,1,20370,426.8Z" transform="translate(-20354 -415)"/>
</svg>
